<svg id="Layer_1" xmlns="http://www.w3.org/2000/svg" viewBox="452 284 1500.5 209.5"><style>.st0{fill:#4285f4}.st1{fill:#00bfa5}.st2{fill:#1ce9b6}.st3{fill:#4fc3f7}.st4{fill:none}.st5{fill:#666}.st6{fill:#4b4b4c}</style><path class="st0" d="M495.6 323.7h35.5v115.2h-35.5z"/><path class="st1" d="M601.7 323.7h35.7v115.2h-35.7z"/><path class="st2" d="M601.9 438.9h35.5l-53-97.7h-35.5z"/><path class="st3" d="M531.1 438.9h-35.5l53.1-97.7h35.4z"/><path class="st4" d="M452 284h1500.5v194.7H452z"/><path class="st0" d="M474.7 456.4V306.7h38.8V284H461c-4.9 0-9 4-9 9v175.9c0 4.9 4 9.9 9 9.9h52.6v-22.3h-38.9z"/><path class="st4" d="M452 284h1500.5v194.7H452z"/><path class="st1" d="M658.3 456.4V306.7h-38.8V284h52.6c4.9 0 9 4 9 9v175.9c0 4.9-4 9.9-9 9.9h-52.6v-22.3h38.8z"/><path class="st4" d="M452 284h1500.5v194.7H452z"/><path class="st5" d="M786.5 358.5l2.8 14.5.4.1 3.6-14.6 20-67.8h7.3l20 67.8 3.5 14.6h.4l3-14.6 17.1-67.8h7.9l-24.3 94.6h-7.3l-21.2-72.6-2.5-9.9h-.4l-2.4 9.9-21.4 72.6h-7.4l-24.3-94.6h8z"/><path class="st4" d="M452 284h1500.5v194.7H452z"/><path class="st5" d="M880.6 349.1c0-10.3 2.8-18.8 8.5-25.5 5.7-6.6 13.2-9.9 22.5-9.9 9.4 0 16.9 3.3 22.6 9.9 5.7 6.6 8.5 15.1 8.5 25.5v2.1c0 10.4-2.8 18.9-8.5 25.5-5.7 6.6-13.2 9.9-22.5 9.9-9.4 0-17-3.3-22.7-9.9-5.7-6.6-8.5-15.1-8.5-25.5l.1-2.1zm7.8 2.1c0 8.1 2.1 15 6.2 20.5s9.8 8.3 17.2 8.3c7.2 0 12.9-2.8 17-8.3 4.1-5.5 6.2-12.4 6.2-20.5v-2.1c0-8-2.1-14.8-6.2-20.4-4.2-5.6-9.9-8.4-17.1-8.4-7.3 0-13 2.8-17.1 8.4-4.1 5.6-6.2 12.4-6.2 20.4v2.1z"/><path class="st4" d="M452 284h1500.5v194.7H452z"/><path class="st5" d="M965.5 315l.7 11.6c2.3-4.1 5.2-7.3 9-9.5 3.7-2.3 8.2-3.4 13.4-3.4 5.4 0 9.9 1.3 13.5 3.9 3.6 2.6 6.2 6.6 7.8 11.9 2.1-4.9 5.1-8.8 9.1-11.6 3.9-2.8 8.7-4.2 14.3-4.2 7.5 0 13.3 2.5 17.3 7.5 4.1 5 6.1 12.7 6.1 23.1v41h-7.8v-41.2c0-8.7-1.5-14.8-4.6-18.4-3.1-3.6-7.3-5.4-12.8-5.4-6 0-10.7 1.9-14 5.7-3.3 3.8-5.3 8.6-6.1 14.5v44.7h-7.9V344c0-8.5-1.5-14.6-4.6-18.3-3.1-3.7-7.3-5.5-12.8-5.5-5.5 0-9.9 1.4-13.1 4.2s-5.5 6.6-6.8 11.3v49.5h-7.9V315h7.2z"/><path class="st4" d="M452 284h1500.5v194.7H452z"/><path class="st5" d="M1103.2 386.6c-8.8 0-16.1-3.2-21.9-9.7-5.8-6.5-8.7-14.7-8.7-24.7v-3.6c0-10 2.9-18.4 8.7-25 5.8-6.6 12.8-9.9 21-9.9 8.6 0 15.4 2.7 20.3 8.2 4.9 5.5 7.4 12.7 7.4 21.8v6.6h-49.6v1.9c0 7.9 2.1 14.5 6.3 19.8 4.2 5.3 9.7 8 16.6 8 4.8 0 9-.7 12.4-2 3.4-1.3 6.3-3.3 8.8-5.8l3.3 5.3c-2.6 2.8-6 5-10 6.6-4.2 1.7-9 2.5-14.6 2.5m-1-66.3c-5.8 0-10.6 2.2-14.5 6.6-3.9 4.4-6.2 9.9-6.8 16.5l.1.3h41.2v-1.9c0-6.1-1.8-11.2-5.4-15.3-3.6-4.1-8.4-6.2-14.6-6.2"/><path class="st4" d="M452 284h1500.5v194.7H452z"/><path class="st5" d="M1152.2 315l.7 12.3c2.2-4.3 5.3-7.7 9.1-10 3.8-2.4 8.4-3.5 13.6-3.5 7.6 0 13.4 2.3 17.4 7 4 4.7 6 11.9 6 21.8v42.8h-7.8v-42.8c0-8.1-1.5-13.8-4.5-17.1-3-3.3-7.3-5-12.8-5-5.5 0-9.9 1.4-13.3 4.3-3.4 2.9-5.9 6.7-7.4 11.5v49.1h-7.8V315h6.8z"/><path class="st4" d="M452 284h1500.5v194.7H452z"/><path class="st5" d="M1317.2 297.3h-32.5v88h-7.8v-88h-32.5v-6.6h72.8z"/><path class="st4" d="M452 284h1500.5v194.7H452z"/><path class="st5" d="M1350.4 386.6c-8.8 0-16.1-3.2-21.9-9.7-5.8-6.5-8.7-14.7-8.7-24.7v-3.6c0-10 2.9-18.4 8.7-25 5.8-6.6 12.8-9.9 21-9.9 8.6 0 15.4 2.7 20.3 8.2 4.9 5.5 7.4 12.7 7.4 21.8v6.6h-49.6v1.9c0 7.9 2.1 14.5 6.3 19.8 4.2 5.3 9.7 8 16.6 8 4.8 0 9-.7 12.4-2 3.4-1.3 6.3-3.3 8.8-5.8l3.3 5.3c-2.6 2.8-6 5-10 6.6-4.2 1.7-9 2.5-14.6 2.5m-1-66.3c-5.8 0-10.6 2.2-14.5 6.6-3.9 4.4-6.2 9.9-6.8 16.5l.1.3h41.2v-1.9c0-6.1-1.8-11.2-5.4-15.3-3.5-4.1-8.4-6.2-14.6-6.2"/><path class="st4" d="M452 284h1500.5v194.7H452z"/><path class="st5" d="M1418.6 380c5.2 0 9.7-1.5 13.6-4.4 3.9-2.9 5.9-7 5.9-12.2h6.9l.1.4c.2 6.5-2.4 11.9-7.8 16.3s-11.7 6.6-18.8 6.6c-9.6 0-17-3.3-22.2-9.8-5.2-6.6-7.8-15-7.8-25.3v-2.7c0-10.2 2.6-18.6 7.9-25.2 5.2-6.6 12.6-9.9 22.1-9.9 7.7 0 14.1 2.3 19.3 6.8 5.1 4.5 7.6 10.5 7.4 17.9l-.1.4h-6.9c0-5.6-1.9-10.1-5.7-13.5-3.8-3.4-8.4-5-13.9-5-7.5 0-13.1 2.7-16.7 8.1-3.6 5.4-5.4 12.2-5.4 20.3v2.7c0 8.3 1.8 15.1 5.4 20.5 3.5 5.3 9.1 8 16.7 8"/><path class="st4" d="M452 284h1500.5v194.7H452z"/><path class="st5" d="M1469.3 327c2.3-4.2 5.5-7.5 9.4-9.8 3.9-2.3 8.4-3.5 13.6-3.5 7.4 0 13.1 2.3 17 6.9 4 4.6 5.9 11.7 5.9 21.4v43.3h-7.8v-43.5c0-7.6-1.5-13.1-4.5-16.4-3-3.3-7.2-5-12.4-5-5.3 0-9.8 1.4-13.3 4.2-3.6 2.8-6.2 6.5-7.9 11.2v49.6h-7.8V284h7.8v43z"/><path class="st4" d="M452 284h1500.5v194.7H452z"/><path class="st5" d="M1542.1 315l.7 11.6c2.3-4.1 5.2-7.3 9-9.5 3.7-2.3 8.2-3.4 13.4-3.4 5.4 0 9.9 1.3 13.5 3.9 3.6 2.6 6.2 6.6 7.8 11.9 2.1-4.9 5.1-8.8 9.1-11.6 3.9-2.8 8.7-4.2 14.3-4.2 7.5 0 13.3 2.5 17.3 7.5 4.1 5 6.1 12.7 6.1 23.1v41h-7.8v-41.2c0-8.7-1.5-14.8-4.6-18.4-3.1-3.6-7.3-5.4-12.8-5.4-6 0-10.7 1.9-14 5.7-3.3 3.8-5.3 8.6-6.1 14.5v44.7h-7.9V344c0-8.5-1.5-14.6-4.6-18.3-3.1-3.7-7.3-5.5-12.8-5.5-5.5 0-9.9 1.4-13.1 4.2-3.2 2.8-5.5 6.6-6.8 11.3v49.5h-7.9V315h7.2z"/><path class="st4" d="M452 284h1500.5v194.7H452z"/><path class="st5" d="M1697.9 385.3c-.5-2.4-.9-4.4-1.1-6.2-.2-1.7-.3-3.5-.3-5.3-2.6 3.7-6.1 6.7-10.4 9.2-4.3 2.4-9.2 3.6-14.6 3.6-6.8 0-12.2-1.8-15.9-5.5-3.8-3.6-5.7-8.5-5.7-14.6 0-6.5 2.8-11.7 8.4-15.6 5.6-3.9 13.2-5.8 22.7-5.8h15.5v-8.7c0-5-1.6-9-4.8-11.8-3.2-2.9-7.7-4.3-13.5-4.3-5.4 0-9.9 1.4-13.5 4.1-3.6 2.7-5.4 6.1-5.4 10l-7.1-.1-.1-.4c-.3-5.2 2.1-9.9 7.2-14.1 5-4.1 11.5-6.2 19.3-6.2 7.7 0 14 2 18.7 5.9 4.7 3.9 7.1 9.6 7.1 17V371c0 2.5.1 4.9.4 7.2.3 2.3.7 4.7 1.4 7l-8.3.1zm-25.6-5.5c5.6 0 10.5-1.3 14.8-3.9 4.3-2.6 7.4-6 9.3-10v-14.7h-15.7c-7.1 0-12.7 1.5-16.9 4.5-4.2 3-6.3 6.7-6.3 11.2 0 3.8 1.3 6.9 3.9 9.3 2.7 2.3 6.3 3.6 10.9 3.6"/><path class="st4" d="M452 284h1500.5v194.7H452z"/><path class="st5" d="M1741.7 351h-9v34.3h-7.8V284h7.8v60.4h8.2L1767 315h9.1l.1.3-28.1 31.7 31.1 37.9-.2.4h-8.9z"/><path class="st4" d="M452 284h1500.5v194.7H452z"/><path class="st5" d="M1815.3 386.6c-8.8 0-16.1-3.2-21.9-9.7-5.8-6.5-8.7-14.7-8.7-24.7v-3.6c0-10 2.9-18.4 8.7-25 5.8-6.6 12.8-9.9 21-9.9 8.6 0 15.4 2.7 20.3 8.2 4.9 5.5 7.4 12.7 7.4 21.8v6.6h-49.6v1.9c0 7.9 2.1 14.5 6.3 19.8s9.7 8 16.6 8c4.8 0 9-.7 12.4-2 3.4-1.3 6.3-3.3 8.8-5.8l3.3 5.3c-2.6 2.8-6 5-10 6.6-4.2 1.7-9 2.5-14.6 2.5m-1-66.3c-5.8 0-10.6 2.2-14.5 6.6-3.9 4.4-6.2 9.9-6.8 16.5l.1.3h41.2v-1.9c0-6.1-1.8-11.2-5.4-15.3-3.6-4.1-8.5-6.2-14.6-6.2"/><path class="st4" d="M452 284h1500.5v194.7H452z"/><path class="st5" d="M1889.8 321.7l-5.8-.4c-4.9 0-8.9 1.4-12 4.1-3.1 2.8-5.4 6.5-6.7 11.3v48.5h-7.8V315h6.8l1 11.7v.8c2-4.3 4.8-7.7 8.2-10.1 3.4-2.4 7.5-3.6 12.2-3.6 1 0 2 .1 2.9.2.9.2 1.7.3 2.3.5l-1.1 7.2z"/><path class="st4" d="M452 284h1500.5v194.7H452z"/><path class="st5" d="M1944.8 367.4c0-3.3-1.4-6.2-4.1-8.6-2.7-2.5-7.6-4.5-14.6-6-8.4-1.8-14.6-4.2-18.6-7.2-4-3-6-7.2-6-12.7 0-5.4 2.3-9.9 6.8-13.6 4.5-3.7 10.5-5.6 18-5.6 7.9 0 14.2 2 18.8 5.9 4.6 3.9 6.8 8.8 6.6 14.7l-.1.4h-7.2c0-3.9-1.6-7.2-4.9-10.1-3.3-2.9-7.7-4.3-13.2-4.3-5.7 0-9.9 1.2-12.8 3.7-2.8 2.4-4.3 5.3-4.3 8.6 0 3.2 1.2 5.9 3.7 8 2.4 2.1 7.3 4 14.6 5.6 8.4 1.9 14.6 4.4 18.8 7.7 4.2 3.2 6.2 7.6 6.2 13.2 0 5.9-2.4 10.6-7.1 14.2-4.7 3.6-11 5.4-18.8 5.4-8.5 0-15.2-2-20.1-6.1-4.9-4.1-7.2-8.9-6.9-14.5l.1-.4h7.1c.3 5 2.4 8.7 6.2 11 3.8 2.3 8.3 3.4 13.5 3.4 5.6 0 10.1-1.2 13.3-3.7 3.3-2.5 5-5.5 5-9"/><path class="st6" d="M798.7 467.7l-17.4-43.5h-9.1v53.2h7v-20.7l-.7-22.3 17.5 43h5.4l17.5-43.1-.7 22.4v20.7h7v-53.2h-9.1l-17.4 43.5zm54.8-30.5c-3.5 0-6.6.8-9.3 2.5-2.7 1.7-4.8 4.1-6.4 7.2-1.5 3.1-2.3 6.6-2.3 10.4v.5c0 6.1 1.6 11 5 14.8 3.3 3.7 7.7 5.6 13 5.6 3.6 0 6.7-.8 9.5-2.5 2.8-1.8 4.8-4.2 6.3-7.2s2.2-6.5 2.2-10.4v-.4c0-6.2-1.6-11.1-5-14.8-3.3-3.8-7.7-5.7-13-5.7zm8.2 31.5c-2 2.7-4.8 4-8.2 4-3.4 0-6.1-1.3-8.1-4s-3.1-6.1-3.1-10.6c0-4.9 1-8.7 3.1-11.4 2-2.7 4.8-4 8.1-4 3.4 0 6.1 1.3 8.2 4.1 2.1 2.7 3.1 6.2 3.1 10.5 0 4.9-1.1 8.6-3.1 11.4zm25.7-26.2l-.1-4.5h-6.6v39.5h6.8v-28.1c1.6-3.7 4.6-5.7 9-5.7 1.2 0 2.3.1 3.3.3v-6.3c-.7-.3-1.7-.5-3-.5-4 0-7.2 1.8-9.4 5.3zm34.3-5.3c-3.2 0-6.1.9-8.8 2.6-2.7 1.8-4.8 4.2-6.3 7.3-1.5 3-2.2 6.6-2.2 10.5v1.2c0 5.9 1.7 10.6 5 14.1 3.4 3.5 7.7 5.3 13.1 5.3 6.6 0 11.6-2.5 14.9-7.6l-4.1-3.2c-1.2 1.6-2.7 2.9-4.3 3.9-1.7 1-3.7 1.4-6.1 1.4-3.4 0-6.1-1.2-8.3-3.6-2.2-2.4-3.3-5.6-3.4-9.5H938v-2.8c0-6.3-1.4-11.2-4.3-14.6-2.9-3.3-6.9-5-12-5zm9.5 16.9h-19.8c.4-3.6 1.6-6.4 3.4-8.4 1.9-2 4.1-3 6.9-3 2.8 0 5.1 1 6.7 2.8 1.6 1.9 2.6 4.5 2.8 8v.6zm69.7 14l-9.4-30.2H986l-9.2 29.6-7.8-29.6h-6.7l11.5 39.5h5.5l9.3-30 9.6 30h5.5l11.5-39.5h-6.8l-7.5 30.2zm38.1-30.9c-3.5 0-6.6.8-9.3 2.5-2.7 1.7-4.8 4.1-6.4 7.2-1.5 3.1-2.3 6.6-2.3 10.4v.5c0 6.1 1.6 11 5 14.8 3.3 3.7 7.6 5.6 13 5.6 3.6 0 6.7-.8 9.5-2.5 2.8-1.8 4.8-4.2 6.3-7.2s2.2-6.5 2.2-10.4v-.4c0-6.2-1.7-11.1-5-14.8-3.2-3.8-7.6-5.7-13-5.7zm8.2 31.5c-2 2.7-4.8 4-8.2 4-3.4 0-6.1-1.3-8.2-4-2-2.7-3-6.1-3-10.6 0-4.9 1-8.7 3.1-11.4 2-2.7 4.7-4 8.1-4 3.4 0 6.1 1.3 8.2 4.1 2.1 2.7 3.1 6.2 3.1 10.5 0 4.9-1 8.6-3.1 11.4zm61.3-31.5c-2.9 0-5.4.5-7.5 1.7-2.1 1.2-3.8 2.7-5.1 4.6-2-4.2-5.7-6.3-11.3-6.3-4.9 0-8.8 1.7-11.7 5.1l-.2-4.4h-6.4v39.5h6.8v-28.9c1.6-3.7 4.7-5.7 9.1-5.7 5.6 0 8.4 2.9 8.4 8.6v25.9h6.8v-26.2c.3-2.6 1.2-4.6 2.9-6 1.6-1.5 3.7-2.3 6.3-2.3 3 0 5.2.7 6.5 2.1 1.3 1.4 2 3.5 2 6.3v26.1h6.8V451c-.3-9.3-4.8-13.8-13.4-13.8zm39.7 0c-3.2 0-6.1.9-8.8 2.6-2.7 1.8-4.8 4.2-6.3 7.3-1.5 3-2.2 6.6-2.2 10.5v1.2c0 5.9 1.7 10.6 5 14.1 3.4 3.5 7.7 5.3 13.1 5.3 6.6 0 11.6-2.5 14.9-7.6l-4.1-3.2c-1.2 1.6-2.7 2.9-4.4 3.9-1.7 1-3.7 1.4-6.1 1.4-3.4 0-6.1-1.2-8.3-3.6-2.2-2.4-3.3-5.6-3.4-9.5h26.8v-2.8c0-6.3-1.4-11.2-4.3-14.6s-6.7-5-11.9-5zm9.5 16.9h-19.8c.4-3.6 1.6-6.4 3.4-8.4 1.9-2 4.1-3 6.9-3 2.8 0 5.1 1 6.7 2.8 1.7 1.9 2.6 4.5 2.8 8v.6zm33.8-16.9c-4.8 0-8.8 1.9-11.8 5.7l-.2-5h-6.4v39.5h6.8v-28.2c.9-1.9 2.2-3.5 3.9-4.6 1.7-1.2 3.6-1.8 5.8-1.8 2.7 0 4.7.7 6 2 1.3 1.4 1.9 3.5 2 6.3v26.2h6.8v-26.1c-.3-9.3-4.5-14-12.9-14zm43.5 40.3h6.8V438h-6.8v39.5zm3.4-54c-1.3 0-2.3.4-2.9 1.2-.7.7-1.1 1.7-1.1 2.8 0 1.1.4 2 1.1 2.8.6.7 1.6 1.1 2.9 1.1 1.3 0 2.3-.4 3-1.1.6-.7 1-1.7 1-2.8 0-1.1-.4-2-1-2.8-.6-.8-1.6-1.2-3-1.2zm33.4 13.7c-4.8 0-8.8 1.9-11.8 5.7l-.2-5h-6.4v39.5h6.8v-28.2c.9-1.9 2.2-3.5 3.8-4.6 1.7-1.2 3.6-1.8 5.8-1.8 2.7 0 4.7.7 6 2 1.2 1.4 1.9 3.5 2 6.3v26.2h6.8v-26.1c-.2-9.3-4.5-14-12.8-14zm53 34.1c-.6-.8-1-2-1-3.6v-24.5h7.4V438h-7.4v-9.6h-6.8v9.6h-7.2v5.2h7.2v24.5c0 3.4.8 6 2.3 7.7 1.5 1.9 3.8 2.8 6.8 2.8 1.7 0 3.4-.2 5.2-.7V472c-1.3.3-2.4.4-3.2.4-1.5.1-2.6-.4-3.3-1.1zm30.7-34.1c-3.2 0-6 .9-8.8 2.6-2.7 1.8-4.8 4.2-6.2 7.3-1.5 3-2.3 6.6-2.3 10.5v1.2c0 5.9 1.7 10.6 5.1 14.1 3.4 3.5 7.7 5.3 13.1 5.3 6.7 0 11.6-2.5 14.9-7.6l-4.1-3.2c-1.2 1.6-2.7 2.9-4.4 3.9-1.7 1-3.7 1.4-6.1 1.4-3.3 0-6.1-1.2-8.3-3.6-2.2-2.4-3.4-5.6-3.5-9.5h26.8v-2.8c0-6.3-1.4-11.2-4.3-14.6s-6.8-5-11.9-5zm9.5 16.9h-19.8c.4-3.6 1.6-6.4 3.4-8.4 1.9-2 4.2-3 6.9-3 2.8 0 5.1 1 6.7 2.8 1.7 1.9 2.7 4.5 2.8 8v.6zm23.2-7.6c1.9-2.5 4.5-3.7 7.9-3.7 2.6 0 4.7.9 6.5 2.5 1.8 1.7 2.7 3.7 2.9 6.3h6.4c-.2-4.3-1.8-7.7-4.7-10.3-2.9-2.7-6.7-4-11.1-4-3.6 0-6.7.8-9.3 2.5-2.7 1.6-4.7 4-6.1 6.9-1.3 3-2.1 6.5-2.1 10.3v1.2c0 6.2 1.5 11.1 4.7 14.8 3.2 3.6 7.5 5.3 12.9 5.3 2.7 0 5.2-.6 7.6-1.8 2.4-1.2 4.3-2.8 5.7-4.9 1.5-2 2.2-4.3 2.4-6.5h-6.4c-.2 2.1-1.2 4-3 5.5-1.8 1.4-3.9 2.1-6.3 2.1-3.5 0-6.2-1.2-8.1-3.7-1.9-2.5-2.8-6-2.8-10.6v-1.3c0-4.6.9-8.2 2.9-10.6zm50.5-9.3c-4.8 0-8.6 1.8-11.7 5.5v-21.4h-6.8v56.2h6.8v-28.2c.9-1.9 2.2-3.5 3.8-4.6 1.7-1.2 3.6-1.8 5.8-1.8 2.7 0 4.7.7 6 2 1.2 1.4 1.9 3.5 2 6.3v26.2h6.8v-26.1c-.1-9.4-4.3-14.1-12.7-14.1zm42 0c-4.9 0-8.8 1.9-11.8 5.7l-.3-5h-6.4v39.5h6.8v-28.2c1-1.9 2.2-3.5 3.9-4.6 1.7-1.2 3.6-1.8 5.8-1.8 2.7 0 4.7.7 6 2 1.3 1.4 2 3.5 2 6.3v26.2h6.8v-26.1c-.3-9.3-4.5-14-12.8-14zm39.7 0c-3.5 0-6.6.8-9.3 2.5-2.7 1.7-4.9 4.1-6.4 7.2-1.5 3.1-2.3 6.6-2.3 10.4v.5c0 6.1 1.7 11 5 14.8 3.4 3.7 7.7 5.6 13.1 5.6 3.6 0 6.7-.8 9.4-2.5 2.8-1.8 4.9-4.2 6.4-7.2 1.4-3 2.1-6.5 2.1-10.4v-.4c0-6.2-1.6-11.1-5-14.8-3.2-3.8-7.6-5.7-13-5.7zm8.3 31.5c-2 2.7-4.7 4-8.2 4-3.4 0-6.1-1.3-8.2-4-2-2.7-3-6.1-3-10.6 0-4.9 1-8.7 3-11.4 2-2.7 4.8-4 8.1-4 3.5 0 6.1 1.3 8.3 4.1 2 2.7 3 6.2 3 10.5 0 4.9-1 8.6-3 11.4zm19.6 8.8h6.8v-56.2h-6.8v56.2zm34.5-40.3c-3.5 0-6.6.8-9.3 2.5-2.7 1.7-4.8 4.1-6.3 7.2-1.5 3.1-2.3 6.6-2.3 10.4v.5c0 6.1 1.7 11 5 14.8 3.4 3.7 7.7 5.6 13.1 5.6 3.6 0 6.7-.8 9.4-2.5 2.7-1.8 4.9-4.2 6.3-7.2 1.5-3 2.2-6.5 2.2-10.4v-.4c0-6.2-1.6-11.1-5-14.8-3.3-3.8-7.7-5.7-13.1-5.7zm8.3 31.5c-2 2.7-4.7 4-8.2 4-3.5 0-6.1-1.3-8.2-4-2-2.7-3-6.1-3-10.6 0-4.9 1-8.7 3-11.4 2-2.7 4.7-4 8.1-4 3.4 0 6.1 1.3 8.2 4.1 2.1 2.7 3.1 6.2 3.1 10.5 0 4.9-1 8.6-3 11.4zm44.3-26.4c-2.7-3.4-6.5-5.1-11.3-5.1-4.7 0-8.5 1.8-11.4 5.4-2.8 3.6-4.3 8.5-4.3 14.7 0 6.4 1.4 11.5 4.3 15.2 2.9 3.7 6.7 5.6 11.3 5.6 4.7 0 8.4-1.5 11.1-4.6v3.4c0 3.4-1 6-2.8 7.8-1.8 1.9-4.4 2.8-7.7 2.8-4.2 0-7.7-1.8-10.7-5.3l-3.5 4c1.4 2.1 3.5 3.8 6.2 5.1 2.8 1.2 5.5 1.8 8.4 1.8 5.1 0 9.2-1.4 12.3-4.4 3-3 4.5-7 4.5-12.2v-38.6h-6.1l-.3 4.4zm-.3 24.3c-2 3.9-5.1 5.9-9.4 5.9-3.3 0-5.9-1.3-7.7-3.8-1.8-2.6-2.7-6-2.7-10.6 0-5 .9-8.8 2.8-11.3 1.9-2.6 4.4-3.9 7.7-3.9 4.1 0 7.2 1.9 9.3 5.7v18zm39.9-28.7l-9.2 29.7-9.9-29.7h-7.4l14.1 39.1-1.5 4c-.9 2.5-1.9 4.2-3.2 5.1-1.2.9-3 1.3-5.3 1.3l-1.9-.1v5.4l2.6.5 1.2.1c5.3 0 9.2-3.3 11.7-9.9l15.9-45.7h-7.1v.2z" id="text"/></svg>