<svg xmlns="http://www.w3.org/2000/svg" width="640" height="83.883" viewBox="0 0 640 83.883"><g fill="#FFF"><path d="M170.695 66.102h-2.406l-9.414-32.842c-.836-2.614-1.359-4.916-1.778-6.589a56.853 56.853 0 0 1-1.36 5.856c-.627 2.197-3.661 13.493-9.413 33.68h-2.51L132.1 23.533h3.138l7.426 27.508c.313 1.15.627 2.196.836 3.033.209.941.523 1.882.732 2.614.209.837.418 1.674.523 2.301.209.837.313 1.569.418 2.302.523-2.615 1.464-6.59 2.928-12.028l7.217-25.834h3.242l8.577 29.704c1.046 3.451 1.778 6.275 2.196 8.263.209-1.465.627-2.824 1.046-4.498.418-1.568 3.347-12.76 8.995-33.469h2.928l-11.607 42.673zM212.009 50.204c0 5.229-1.255 9.204-3.766 12.133-2.51 2.823-5.961 4.393-10.459 4.393-2.72 0-5.23-.732-7.322-2.092-2.196-1.359-3.765-3.242-4.916-5.857-1.151-2.51-1.778-5.438-1.778-8.681 0-5.229 1.255-9.204 3.766-12.028s5.961-4.288 10.354-4.288 7.74 1.464 10.25 4.393c2.615 2.823 3.871 6.902 3.871 12.027zm-25.103 0c0 4.393.941 7.739 2.824 10.25 1.987 2.405 4.602 3.66 8.158 3.66s6.275-1.255 8.158-3.66c1.883-2.406 2.824-5.857 2.824-10.25 0-4.394-.941-7.74-2.824-10.25-1.883-2.511-4.707-3.557-8.158-3.557s-6.275 1.256-8.054 3.557c-1.986 2.405-2.928 5.857-2.928 10.25zM257.402 66.102V45.393c0-3.033-.628-5.334-1.883-6.693-1.255-1.465-3.033-2.197-5.543-2.197-3.242 0-5.648.941-7.217 2.615-1.569 1.883-2.301 4.602-2.301 8.472v18.617h-2.928v-21.86c0-5.334-2.406-8.054-7.322-8.054-3.347 0-5.752 1.046-7.217 2.824-1.569 1.987-2.196 5.021-2.196 9.309v17.467h-2.824V34.306h2.301l.627 4.394h.209c.941-1.569 2.197-2.72 3.766-3.661 1.673-.837 3.347-1.359 5.334-1.359 5.021 0 8.158 1.882 9.623 5.647h.104c1.046-1.883 2.406-3.138 4.184-4.184 1.778-1.046 3.661-1.464 5.961-1.464 3.452 0 6.066.941 7.74 2.719 1.778 1.883 2.51 4.812 2.51 8.786v20.709h-2.928v.209zM280.935 66.625c-4.602 0-8.158-1.465-10.878-4.288-2.51-2.824-3.87-6.799-3.87-11.924s1.255-9.1 3.765-12.133c2.406-3.033 5.857-4.602 10.146-4.602 3.765 0 6.589 1.359 8.891 3.869 2.196 2.615 3.242 6.171 3.242 10.669v2.301H269.43c0 4.393 1.046 7.636 3.033 10.041 2.092 2.196 4.811 3.451 8.577 3.451 1.883 0 3.347-.104 4.811-.418 1.36-.209 3.033-.837 5.23-1.674v2.615c-1.883.837-3.452 1.359-5.021 1.674-1.569.315-3.243.419-5.125.419zm-.837-30.332c-3.033 0-5.543 1.046-7.321 3.033-1.883 2.092-2.929 4.916-3.243 8.682h19.664c0-3.661-.837-6.59-2.301-8.577-1.778-2.092-3.975-3.138-6.799-3.138zM320.68 66.102v-20.5c0-3.138-.732-5.543-2.091-6.902-1.359-1.465-3.452-2.197-6.276-2.197-3.765 0-6.589.941-8.367 2.824-1.778 1.987-2.615 5.021-2.615 9.309v17.467h-2.824V34.41h2.406l.523 4.394h.209c2.092-3.243 5.753-5.021 10.982-5.021 7.112 0 10.877 3.87 10.877 11.505v20.709c0 .105-2.824.105-2.824.105zM356.451 66.102h-2.93v-39.85h-13.91v-2.823h30.75v2.719h-13.91v39.954zM386.363 66.625c-4.602 0-8.158-1.465-10.877-4.288-2.51-2.824-3.871-6.799-3.871-11.924s1.256-9.1 3.766-12.133c2.406-3.033 5.857-4.602 10.146-4.602 3.766 0 6.59 1.359 8.891 3.869 2.195 2.615 3.242 6.171 3.242 10.669v2.301h-22.906c0 4.393 1.047 7.636 3.033 10.041 2.092 2.196 4.811 3.451 8.576 3.451 1.883 0 3.348-.104 4.812-.418 1.359-.209 3.033-.837 5.229-1.674v2.615c-1.883.837-3.451 1.359-5.02 1.674-1.57.315-3.241.419-5.021.419zm-.836-30.332c-3.033 0-5.543 1.046-7.322 3.033-1.883 2.092-2.928 4.916-3.242 8.682h19.664c0-3.661-.838-6.59-2.301-8.577-1.779-2.092-4.08-3.138-6.799-3.138zM416.592 66.625c-4.498 0-8.055-1.465-10.67-4.288-2.51-2.824-3.869-6.799-3.869-11.924 0-5.229 1.359-9.413 3.975-12.237 2.615-2.929 6.381-4.393 10.982-4.393 2.719 0 5.438.522 7.844 1.464l-.836 2.511c-2.721-.941-5.125-1.36-7.113-1.36-3.869 0-6.799 1.255-8.891 3.557-2.092 2.405-2.928 5.856-2.928 10.459 0 4.288 1.045 7.635 2.928 10.041 2.092 2.405 4.812 3.66 8.369 3.66 2.822 0 5.543-.522 8.053-1.568v2.614c-1.883.941-4.498 1.464-7.844 1.464zM453.303 66.102v-20.5c0-3.138-.732-5.543-2.092-6.902-1.359-1.465-3.451-2.197-6.275-2.197-3.766 0-6.59.941-8.367 2.824-1.883 1.987-2.615 5.021-2.615 9.309v17.467h-2.824V20.709h2.824v14.434l-.104 4.079h.209c1.254-1.987 2.613-3.242 4.496-4.184 1.883-.837 4.08-1.359 6.695-1.359 7.111 0 10.877 3.869 10.877 11.505v20.709c0 .209-2.824.209-2.824.209zM502.461 66.102V45.393c0-3.033-.627-5.334-1.883-6.693-1.254-1.465-3.033-2.197-5.543-2.197-3.242 0-5.648.941-7.217 2.615-1.568 1.883-2.301 4.602-2.301 8.472v18.617h-2.93v-21.86c0-5.334-2.404-8.054-7.32-8.054-3.348 0-5.752 1.046-7.217 2.824-1.568 1.987-2.197 5.021-2.197 9.309v17.467h-2.824V34.306h2.301l.629 4.394h.209c.941-1.569 2.195-2.72 3.766-3.661 1.674-.837 3.346-1.359 5.334-1.359 5.02 0 8.158 1.882 9.623 5.647h.104c1.047-1.883 2.406-3.138 4.184-4.184 1.779-1.046 3.66-1.464 5.963-1.464 3.451 0 6.066.941 7.738 2.719 1.779 1.883 2.512 4.812 2.512 8.786v20.709h-2.93v.209zM532.584 66.102l-.732-5.021h-.209c-1.674 2.093-3.242 3.452-4.916 4.289-1.674.836-3.66 1.255-5.961 1.255-3.033 0-5.545-.837-7.217-2.301-1.779-1.674-2.512-3.766-2.512-6.59 0-3.033 1.359-5.543 3.871-7.217 2.51-1.674 6.379-2.614 11.191-2.72l6.066-.209v-2.196c0-3.033-.629-5.334-1.883-6.799-1.256-1.568-3.139-2.301-5.963-2.301-2.928 0-6.066.837-9.1 2.406l-1.15-2.511c3.451-1.674 6.904-2.405 10.355-2.405s6.17.941 7.74 2.719c1.777 1.883 2.51 4.603 2.51 8.473v21.127h-2.197.107zm-11.818-2.092c3.346 0 6.066-.941 7.949-2.824 1.986-1.986 2.928-4.602 2.928-8.053v-3.138l-5.543.209c-4.498.209-7.635.941-9.518 2.092-1.988 1.255-2.824 2.929-2.824 5.543 0 1.987.627 3.557 1.883 4.603 1.254 1.045 3.033 1.568 5.125 1.568zM545.344 52.191l16.213-17.781h3.451l-12.447 13.598 13.598 18.198h-3.451l-12.029-16.002-5.229 4.706v11.296h-2.824V20.709h2.824V43.51l-.106 8.681zM581.848 66.625c-4.604 0-8.158-1.465-10.879-4.288-2.51-2.824-3.869-6.799-3.869-11.924s1.254-9.1 3.766-12.133c2.404-3.033 5.855-4.602 10.145-4.602 3.766 0 6.59 1.359 8.891 3.869 2.197 2.615 3.242 6.171 3.242 10.669v2.301h-22.906c0 4.393 1.047 7.636 3.033 10.041 2.092 2.301 4.812 3.451 8.578 3.451 1.881 0 3.346-.104 4.811-.418 1.359-.209 3.033-.837 5.229-1.674v2.615c-1.881.837-3.451 1.359-5.02 1.674-1.57.315-3.14.419-5.021.419zm-.838-30.332c-3.033 0-5.543 1.046-7.32 3.033-1.779 1.987-2.93 4.916-3.244 8.682h19.664c0-3.661-.836-6.59-2.301-8.577-1.778-2.092-3.975-3.138-6.799-3.138zM611.969 33.783a21.2 21.2 0 0 1 4.289.418l-.523 2.72c-1.359-.314-2.615-.523-4.078-.523-2.721 0-4.916 1.15-6.59 3.452-1.777 2.196-2.51 5.229-2.51 8.681v17.467h-2.824V34.306h2.404l.314 5.753h.209c1.359-2.301 2.615-3.975 4.184-4.916 1.256-.942 3.033-1.36 5.125-1.36zM640 57.839c0 2.824-1.15 5.021-3.242 6.59-2.197 1.568-5.23 2.196-9.205 2.196-4.287 0-7.635-.628-10.145-1.987V61.5c3.139 1.674 6.59 2.301 10.145 2.301 3.139 0 5.545-.522 7.113-1.568 1.674-1.046 2.406-2.406 2.406-4.185 0-1.673-.629-2.928-1.988-3.974-1.359-1.151-3.348-2.197-6.381-3.138-3.137-1.151-5.438-2.197-6.588-2.929a8.828 8.828 0 0 1-2.824-2.72 7.23 7.23 0 0 1-1.047-3.766c0-2.301 1.047-4.288 2.93-5.647 2.092-1.465 4.811-2.092 8.367-2.092 3.451 0 6.59.627 9.727 1.987l-1.15 2.614c-3.033-1.359-6.066-1.987-8.682-1.987-2.51 0-4.602.419-6.17 1.36-1.568.836-2.197 2.092-2.197 3.556 0 1.674.629 2.929 1.779 3.975 1.254 1.046 3.451 2.196 6.902 3.347 2.824 1.046 4.916 1.987 6.275 2.72 1.359.837 2.197 1.778 2.93 2.824.731 1.047 1.045 2.301 1.045 3.661z"/></g><path fill="#557EBF" d="M18.722 17.258h15.271v49.576H18.722z"/><path fill="#27BAA2" d="M64.324 17.258h15.375v49.576H64.324z"/><path fill="#62C3A6" d="M64.429 66.729h15.375L56.898 24.684h-15.27z"/><path fill="#59C2EF" d="M33.993 66.729H18.722l22.906-42.045h15.165z"/><g><path fill="#557EBF" d="M9.727 74.364V9.831h16.735V0H3.766C1.569 0 0 1.777 0 3.869v75.726c0 2.196 1.778 4.288 3.87 4.288h22.696V74.26H9.727v.104z"/><path fill="#27BAA2" d="M88.799 74.364V9.831H72.064V0h22.697a3.86 3.86 0 0 1 3.87 3.869v75.726c0 2.196-1.778 4.288-3.87 4.288H72.064V74.26h16.735v.104z"/></g></svg>